<svg width="36" height="36" viewBox="0 0 36 36" fill="none" xmlns="http://www.w3.org/2000/svg">
<rect width="36" height="36" rx="18" fill="#474747" fill-opacity="0.45"/>
<rect x="0.5" y="0.5" width="35" height="35" rx="17.5" stroke="#F8F8F8" stroke-opacity="0.13"/>
<path d="M18 13.1338L19 13.1357V12H21V13.7637C21.1242 13.8556 21.2404 13.9565 21.3486 14.0664C21.6312 14.349 21.8499 14.6816 22.0049 15.0645C22.1644 15.4427 22.2441 15.846 22.2441 16.2744C22.2441 16.7757 22.1553 17.1904 21.9775 17.5186C21.8044 17.8467 21.556 18.111 21.2324 18.3115C21.5742 18.5303 21.8431 18.8014 22.0391 19.125C22.2396 19.444 22.3398 19.8337 22.3398 20.2939C22.3398 20.7633 22.2578 21.194 22.0938 21.5859C21.9342 21.9779 21.7132 22.3174 21.4307 22.6045C21.299 22.7383 21.1552 22.8577 21 22.9639V25H19V23.5H17.9648V25H15.9648V23.5H14V21.627H15.0596V15.0166H14V13.123L16 13.1279V12H18V13.1338ZM17.3291 21.627H19.0518C19.1839 21.627 19.307 21.5928 19.4209 21.5244C19.5394 21.4561 19.6396 21.3672 19.7217 21.2578C19.8083 21.1439 19.8766 21.014 19.9268 20.8682C19.9769 20.7178 20.002 20.5628 20.002 20.4033C20.002 20.2347 19.9769 20.0798 19.9268 19.9385C19.8766 19.7926 19.8083 19.6673 19.7217 19.5625C19.6351 19.4531 19.5326 19.3688 19.4141 19.3096C19.3001 19.2458 19.1794 19.2139 19.0518 19.2139H17.3291V21.627ZM17.3291 17.3408H18.9561C19.0837 17.3408 19.2044 17.3089 19.3184 17.2451C19.4323 17.1813 19.5303 17.097 19.6123 16.9922C19.6989 16.8828 19.7673 16.762 19.8174 16.6299C19.8675 16.4932 19.8926 16.3519 19.8926 16.2061C19.8926 16.0648 19.8675 15.9235 19.8174 15.7822C19.7673 15.641 19.6989 15.5133 19.6123 15.3994C19.5303 15.2855 19.4323 15.1943 19.3184 15.126C19.2044 15.0531 19.0837 15.0166 18.9561 15.0166H17.3291V17.3408Z" fill="white"/>
</svg>
