<svg width="36" height="36" viewBox="0 0 36 36" fill="none" xmlns="http://www.w3.org/2000/svg">
<rect width="36" height="36" rx="18" transform="matrix(-1 0 0 1 36 0)" fill="#474747" fill-opacity="0.45"/>
<rect x="-0.5" y="0.5" width="35" height="35" rx="17.5" transform="matrix(-1 0 0 1 35 0)" stroke="#F8F8F8" stroke-opacity="0.13"/>
<path d="M11.9588 11.2484C12.0484 11.0946 12.2129 11 12.3909 11H26.236C26.5964 11 26.8385 11.3698 26.6942 11.7001L25.2689 14.9633C25.1894 15.1454 25.0095 15.2632 24.8107 15.2632H10.4905C10.1048 15.2632 9.8643 14.8449 10.0584 14.5115L11.9588 11.2484Z" fill="#D9D9D9"/>
<path d="M11.3381 20.4852C11.4277 20.3314 11.5922 20.2368 11.7702 20.2368H25.6153C25.9758 20.2368 26.2178 20.6067 26.0735 20.937L24.6482 24.2001C24.5687 24.3823 24.3888 24.5 24.19 24.5H9.8698C9.48406 24.5 9.24361 24.0817 9.43773 23.7484L11.3381 20.4852Z" fill="#D9D9D9"/>
<path d="M10.0919 16.3101C9.88611 15.977 10.1257 15.5474 10.5173 15.5474H24.088C24.2613 15.5474 24.4223 15.6371 24.5134 15.7846L26.5289 19.0478C26.7347 19.3809 26.495 19.8105 26.1035 19.8105H12.5328C12.3595 19.8105 12.1985 19.7207 12.1074 19.5733L10.0919 16.3101Z" fill="#D9D9D9"/>
</svg>
